<mxfile host="app.diagrams.net" modified="2022-08-24T03:04:42.500Z" agent="5.0 (Windows NT 10.0; Win64; x64) AppleWebKit/537.36 (KHTML, like Gecko) Chrome/104.0.0.0 Safari/537.36" etag="fVNVnBb1Os4o5QH3Vvko" version="20.2.6" type="github">
  <diagram id="aS9pjdUC0Do7hMSleVWt" name="第 1 页">
    <mxGraphModel dx="1422" dy="762" grid="0" gridSize="10" guides="1" tooltips="1" connect="1" arrows="1" fold="1" page="1" pageScale="1" pageWidth="1654" pageHeight="1169" background="none" math="0" shadow="0">
      <root>
        <mxCell id="0" />
        <mxCell id="1" parent="0" />
        <mxCell id="eDFqkNTLr4-eCkODvhOK-2" value="EventListener" style="swimlane;fontStyle=0;childLayout=stackLayout;horizontal=1;startSize=26;fillColor=#CCFFCC;horizontalStack=0;resizeParent=1;resizeParentMax=0;resizeLast=0;collapsible=1;marginBottom=0;direction=east;strokeColor=default;swimlaneLine=1;glass=0;rounded=0;shadow=0;" parent="1" vertex="1" collapsed="1">
          <mxGeometry x="734" y="137" width="116" height="30" as="geometry">
            <mxRectangle x="758" y="56" width="180" height="52" as="alternateBounds" />
          </mxGeometry>
        </mxCell>
        <mxCell id="eDFqkNTLr4-eCkODvhOK-3" value="" style="text;strokeColor=none;fillColor=#CCFFCC;align=left;verticalAlign=top;spacingLeft=4;spacingRight=4;overflow=hidden;rotatable=0;points=[[0,0.5],[1,0.5]];portConstraint=eastwest;" parent="eDFqkNTLr4-eCkODvhOK-2" vertex="1">
          <mxGeometry y="26" width="180" height="26" as="geometry" />
        </mxCell>
        <mxCell id="eDFqkNTLr4-eCkODvhOK-7" value="GenericApplicationListenerAdapter" style="swimlane;fontStyle=0;childLayout=stackLayout;horizontal=1;startSize=26;fillColor=#CCFFFF;horizontalStack=0;resizeParent=1;resizeParentMax=0;resizeLast=0;collapsible=1;marginBottom=0;direction=east;strokeColor=default;swimlaneLine=1;glass=0;rounded=0;shadow=0;" parent="1" vertex="1" collapsed="1">
          <mxGeometry x="419" y="532" width="228" height="30" as="geometry">
            <mxRectangle x="604" y="162" width="183" height="52" as="alternateBounds" />
          </mxGeometry>
        </mxCell>
        <mxCell id="eDFqkNTLr4-eCkODvhOK-8" value="" style="text;strokeColor=none;fillColor=#CCFFFF;align=left;verticalAlign=top;spacingLeft=4;spacingRight=4;overflow=hidden;rotatable=0;points=[[0,0.5],[1,0.5]];portConstraint=eastwest;" parent="eDFqkNTLr4-eCkODvhOK-7" vertex="1">
          <mxGeometry y="26" width="183" height="26" as="geometry" />
        </mxCell>
        <mxCell id="eDFqkNTLr4-eCkODvhOK-10" value="ApplicationListener" style="swimlane;fontStyle=0;childLayout=stackLayout;horizontal=1;startSize=26;fillColor=#CCFFCC;horizontalStack=0;resizeParent=1;resizeParentMax=0;resizeLast=0;collapsible=1;marginBottom=0;direction=east;strokeColor=default;swimlaneLine=1;glass=0;rounded=0;shadow=0;" parent="1" vertex="1" collapsed="1">
          <mxGeometry x="713.75" y="232" width="156.5" height="30" as="geometry">
            <mxRectangle x="955" y="162" width="180" height="52" as="alternateBounds" />
          </mxGeometry>
        </mxCell>
        <mxCell id="eDFqkNTLr4-eCkODvhOK-11" value="" style="text;strokeColor=none;fillColor=#CCFFCC;align=left;verticalAlign=top;spacingLeft=4;spacingRight=4;overflow=hidden;rotatable=0;points=[[0,0.5],[1,0.5]];portConstraint=eastwest;" parent="eDFqkNTLr4-eCkODvhOK-10" vertex="1">
          <mxGeometry y="26" width="180" height="26" as="geometry" />
        </mxCell>
        <mxCell id="7Skxqe6qiwIvJt9pbRk2-1" value="SmartApplicationListener" style="swimlane;fontStyle=0;childLayout=stackLayout;horizontal=1;startSize=30;fillColor=#CCFFCC;horizontalStack=0;resizeParent=1;resizeParentMax=0;resizeLast=0;collapsible=1;marginBottom=0;direction=east;strokeColor=default;swimlaneLine=1;glass=0;rounded=0;shadow=0;" vertex="1" collapsed="1" parent="1">
          <mxGeometry x="705.5" y="329" width="173" height="30" as="geometry">
            <mxRectangle x="955" y="162" width="180" height="52" as="alternateBounds" />
          </mxGeometry>
        </mxCell>
        <mxCell id="7Skxqe6qiwIvJt9pbRk2-2" value="" style="text;strokeColor=none;fillColor=#CCFFCC;align=left;verticalAlign=top;spacingLeft=4;spacingRight=4;overflow=hidden;rotatable=0;points=[[0,0.5],[1,0.5]];portConstraint=eastwest;" vertex="1" parent="7Skxqe6qiwIvJt9pbRk2-1">
          <mxGeometry y="26" width="180" height="26" as="geometry" />
        </mxCell>
        <mxCell id="7Skxqe6qiwIvJt9pbRk2-3" value="ScheduledAnnotationBeanPostProcessor" style="swimlane;fontStyle=0;childLayout=stackLayout;horizontal=1;startSize=26;fillColor=#CCFFFF;horizontalStack=0;resizeParent=1;resizeParentMax=0;resizeLast=0;collapsible=1;marginBottom=0;direction=east;strokeColor=default;swimlaneLine=1;glass=0;rounded=0;shadow=0;" vertex="1" collapsed="1" parent="1">
          <mxGeometry x="335" y="329" width="253" height="30" as="geometry">
            <mxRectangle x="604" y="162" width="183" height="52" as="alternateBounds" />
          </mxGeometry>
        </mxCell>
        <mxCell id="7Skxqe6qiwIvJt9pbRk2-4" value="" style="text;strokeColor=none;fillColor=#CCFFFF;align=left;verticalAlign=top;spacingLeft=4;spacingRight=4;overflow=hidden;rotatable=0;points=[[0,0.5],[1,0.5]];portConstraint=eastwest;" vertex="1" parent="7Skxqe6qiwIvJt9pbRk2-3">
          <mxGeometry y="26" width="183" height="26" as="geometry" />
        </mxCell>
        <mxCell id="7Skxqe6qiwIvJt9pbRk2-5" value="GenericApplicationListener" style="swimlane;fontStyle=0;childLayout=stackLayout;horizontal=1;startSize=30;fillColor=#CCFFCC;horizontalStack=0;resizeParent=1;resizeParentMax=0;resizeLast=0;collapsible=1;marginBottom=0;direction=east;strokeColor=default;swimlaneLine=1;glass=0;rounded=0;shadow=0;" vertex="1" collapsed="1" parent="1">
          <mxGeometry x="700.5" y="424" width="183" height="30" as="geometry">
            <mxRectangle x="955" y="162" width="180" height="52" as="alternateBounds" />
          </mxGeometry>
        </mxCell>
        <mxCell id="7Skxqe6qiwIvJt9pbRk2-6" value="" style="text;strokeColor=none;fillColor=#CCFFCC;align=left;verticalAlign=top;spacingLeft=4;spacingRight=4;overflow=hidden;rotatable=0;points=[[0,0.5],[1,0.5]];portConstraint=eastwest;" vertex="1" parent="7Skxqe6qiwIvJt9pbRk2-5">
          <mxGeometry y="26" width="180" height="26" as="geometry" />
        </mxCell>
        <mxCell id="7Skxqe6qiwIvJt9pbRk2-7" value="ApplicationListenerMethodAdapter" style="swimlane;fontStyle=0;childLayout=stackLayout;horizontal=1;startSize=26;fillColor=#CCFFFF;horizontalStack=0;resizeParent=1;resizeParentMax=0;resizeLast=0;collapsible=1;marginBottom=0;direction=east;strokeColor=default;swimlaneLine=1;glass=0;rounded=0;shadow=0;" vertex="1" collapsed="1" parent="1">
          <mxGeometry x="930" y="532" width="226" height="30" as="geometry">
            <mxRectangle x="604" y="162" width="183" height="52" as="alternateBounds" />
          </mxGeometry>
        </mxCell>
        <mxCell id="7Skxqe6qiwIvJt9pbRk2-8" value="" style="text;strokeColor=none;fillColor=#CCFFFF;align=left;verticalAlign=top;spacingLeft=4;spacingRight=4;overflow=hidden;rotatable=0;points=[[0,0.5],[1,0.5]];portConstraint=eastwest;" vertex="1" parent="7Skxqe6qiwIvJt9pbRk2-7">
          <mxGeometry y="26" width="183" height="26" as="geometry" />
        </mxCell>
        <mxCell id="7Skxqe6qiwIvJt9pbRk2-9" value="SourceFilteringListener" style="swimlane;fontStyle=0;childLayout=stackLayout;horizontal=1;startSize=26;fillColor=#CCFFFF;horizontalStack=0;resizeParent=1;resizeParentMax=0;resizeLast=0;collapsible=1;marginBottom=0;direction=east;strokeColor=default;swimlaneLine=1;glass=0;rounded=0;shadow=0;" vertex="1" collapsed="1" parent="1">
          <mxGeometry x="706.5" y="532" width="171" height="30" as="geometry">
            <mxRectangle x="604" y="162" width="183" height="52" as="alternateBounds" />
          </mxGeometry>
        </mxCell>
        <mxCell id="7Skxqe6qiwIvJt9pbRk2-10" value="" style="text;strokeColor=none;fillColor=#CCFFFF;align=left;verticalAlign=top;spacingLeft=4;spacingRight=4;overflow=hidden;rotatable=0;points=[[0,0.5],[1,0.5]];portConstraint=eastwest;" vertex="1" parent="7Skxqe6qiwIvJt9pbRk2-9">
          <mxGeometry y="26" width="183" height="26" as="geometry" />
        </mxCell>
        <mxCell id="7Skxqe6qiwIvJt9pbRk2-11" value="Ordered" style="swimlane;fontStyle=0;childLayout=stackLayout;horizontal=1;startSize=30;fillColor=#CCFFCC;horizontalStack=0;resizeParent=1;resizeParentMax=0;resizeLast=0;collapsible=1;marginBottom=0;direction=east;strokeColor=default;swimlaneLine=1;glass=0;rounded=0;shadow=0;" vertex="1" collapsed="1" parent="1">
          <mxGeometry x="520" y="232" width="101" height="30" as="geometry">
            <mxRectangle x="604" y="162" width="183" height="52" as="alternateBounds" />
          </mxGeometry>
        </mxCell>
        <mxCell id="7Skxqe6qiwIvJt9pbRk2-12" value="" style="text;strokeColor=none;fillColor=#CCFFFF;align=left;verticalAlign=top;spacingLeft=4;spacingRight=4;overflow=hidden;rotatable=0;points=[[0,0.5],[1,0.5]];portConstraint=eastwest;" vertex="1" parent="7Skxqe6qiwIvJt9pbRk2-11">
          <mxGeometry y="26" width="183" height="26" as="geometry" />
        </mxCell>
        <mxCell id="7Skxqe6qiwIvJt9pbRk2-17" value="" style="endArrow=classic;html=1;rounded=0;exitX=0.5;exitY=0;exitDx=0;exitDy=0;entryX=0.5;entryY=1;entryDx=0;entryDy=0;" edge="1" parent="1" source="7Skxqe6qiwIvJt9pbRk2-5" target="7Skxqe6qiwIvJt9pbRk2-1">
          <mxGeometry width="50" height="50" relative="1" as="geometry">
            <mxPoint x="282" y="202" as="sourcePoint" />
            <mxPoint x="409" y="118" as="targetPoint" />
          </mxGeometry>
        </mxCell>
        <mxCell id="7Skxqe6qiwIvJt9pbRk2-18" value="" style="endArrow=classic;html=1;rounded=0;exitX=0.5;exitY=0;exitDx=0;exitDy=0;entryX=0.75;entryY=1;entryDx=0;entryDy=0;" edge="1" parent="1" source="7Skxqe6qiwIvJt9pbRk2-1" target="7Skxqe6qiwIvJt9pbRk2-11">
          <mxGeometry width="50" height="50" relative="1" as="geometry">
            <mxPoint x="292" y="212" as="sourcePoint" />
            <mxPoint x="419" y="128" as="targetPoint" />
          </mxGeometry>
        </mxCell>
        <mxCell id="7Skxqe6qiwIvJt9pbRk2-19" value="" style="endArrow=classic;html=1;rounded=0;exitX=0.5;exitY=0;exitDx=0;exitDy=0;entryX=0.5;entryY=1;entryDx=0;entryDy=0;" edge="1" parent="1" source="7Skxqe6qiwIvJt9pbRk2-1" target="eDFqkNTLr4-eCkODvhOK-10">
          <mxGeometry width="50" height="50" relative="1" as="geometry">
            <mxPoint x="302" y="222" as="sourcePoint" />
            <mxPoint x="429" y="138" as="targetPoint" />
          </mxGeometry>
        </mxCell>
        <mxCell id="7Skxqe6qiwIvJt9pbRk2-20" value="" style="endArrow=classic;html=1;rounded=0;exitX=0.5;exitY=0;exitDx=0;exitDy=0;entryX=0.5;entryY=1;entryDx=0;entryDy=0;" edge="1" parent="1" source="eDFqkNTLr4-eCkODvhOK-10" target="eDFqkNTLr4-eCkODvhOK-2">
          <mxGeometry width="50" height="50" relative="1" as="geometry">
            <mxPoint x="312" y="232" as="sourcePoint" />
            <mxPoint x="439" y="148" as="targetPoint" />
          </mxGeometry>
        </mxCell>
        <mxCell id="7Skxqe6qiwIvJt9pbRk2-21" value="" style="endArrow=classic;html=1;rounded=0;dashed=1;exitX=0.5;exitY=0;exitDx=0;exitDy=0;entryX=0.25;entryY=1;entryDx=0;entryDy=0;" edge="1" parent="1" source="7Skxqe6qiwIvJt9pbRk2-3" target="eDFqkNTLr4-eCkODvhOK-10">
          <mxGeometry width="50" height="50" relative="1" as="geometry">
            <mxPoint x="226" y="143" as="sourcePoint" />
            <mxPoint x="347" y="73" as="targetPoint" />
          </mxGeometry>
        </mxCell>
        <mxCell id="7Skxqe6qiwIvJt9pbRk2-22" value="" style="endArrow=classic;html=1;rounded=0;dashed=1;exitX=0.5;exitY=0;exitDx=0;exitDy=0;entryX=0.25;entryY=1;entryDx=0;entryDy=0;" edge="1" parent="1" source="7Skxqe6qiwIvJt9pbRk2-3" target="7Skxqe6qiwIvJt9pbRk2-11">
          <mxGeometry width="50" height="50" relative="1" as="geometry">
            <mxPoint x="236" y="153" as="sourcePoint" />
            <mxPoint x="357" y="83" as="targetPoint" />
          </mxGeometry>
        </mxCell>
        <mxCell id="7Skxqe6qiwIvJt9pbRk2-25" value="" style="endArrow=classic;html=1;rounded=0;dashed=1;exitX=0.5;exitY=0;exitDx=0;exitDy=0;entryX=0.75;entryY=1;entryDx=0;entryDy=0;" edge="1" parent="1" source="7Skxqe6qiwIvJt9pbRk2-7" target="7Skxqe6qiwIvJt9pbRk2-5">
          <mxGeometry width="50" height="50" relative="1" as="geometry">
            <mxPoint x="226" y="143" as="sourcePoint" />
            <mxPoint x="347" y="73" as="targetPoint" />
          </mxGeometry>
        </mxCell>
        <mxCell id="7Skxqe6qiwIvJt9pbRk2-26" value="" style="endArrow=classic;html=1;rounded=0;dashed=1;exitX=0.5;exitY=0;exitDx=0;exitDy=0;entryX=0.5;entryY=1;entryDx=0;entryDy=0;" edge="1" parent="1" source="7Skxqe6qiwIvJt9pbRk2-9" target="7Skxqe6qiwIvJt9pbRk2-5">
          <mxGeometry width="50" height="50" relative="1" as="geometry">
            <mxPoint x="236" y="153" as="sourcePoint" />
            <mxPoint x="357" y="83" as="targetPoint" />
          </mxGeometry>
        </mxCell>
        <mxCell id="7Skxqe6qiwIvJt9pbRk2-27" value="" style="endArrow=classic;html=1;rounded=0;dashed=1;exitX=0.5;exitY=0;exitDx=0;exitDy=0;entryX=0.25;entryY=1;entryDx=0;entryDy=0;" edge="1" parent="1" source="eDFqkNTLr4-eCkODvhOK-7" target="7Skxqe6qiwIvJt9pbRk2-5">
          <mxGeometry width="50" height="50" relative="1" as="geometry">
            <mxPoint x="246" y="163" as="sourcePoint" />
            <mxPoint x="367" y="93" as="targetPoint" />
          </mxGeometry>
        </mxCell>
      </root>
    </mxGraphModel>
  </diagram>
</mxfile>
